<?xml version="1.0" encoding="UTF-8"?>
<!DOCTYPE svg PUBLIC "-//W3C//DTD SVG 1.1//EN" "http://www.w3.org/Graphics/SVG/1.1/DTD/svg11.dtd">
<!-- Creator: CorelDRAW -->
<svg xmlns="http://www.w3.org/2000/svg" xml:space="preserve" width="178.996mm" height="178.996mm" version="1.1" style="shape-rendering:geometricPrecision; text-rendering:geometricPrecision; image-rendering:optimizeQuality; fill-rule:evenodd; clip-rule:evenodd"
viewBox="0 0 17899.6 17899.6"
 xmlns:xlink="http://www.w3.org/1999/xlink"
 xmlns:xodm="http://www.corel.com/coreldraw/odm/2003">
 <defs>
  <style type="text/css">
   <![CDATA[
    .fil1 {fill:white;fill-rule:nonzero}
    .fil0 {fill:url(#id0)}
   ]]>
  </style>
  <linearGradient id="id0" gradientUnits="userSpaceOnUse" x1="8939.96" y1="55.04" x2="8939.96" y2="18443.96">
   <stop offset="0" style="stop-opacity:1; stop-color:#00B2FF"/>
   <stop offset="1" style="stop-opacity:1; stop-color:#006AFF"/>
  </linearGradient>
 </defs>
 <g id="Capa_x0020_1">
  <metadata id="CorelCorpID_0Corel-Layer"/>
  <g id="facebook-2020-2-1.svg">
   <path class="fil0" d="M8941.87 215.37c4828.26,0 8742.35,3914.09 8742.35,8742.35 0,4828.26 -3914.09,8742.34 -8742.35,8742.34 -4828.26,0 -8742.35,-3914.08 -8742.35,-8742.34 0,-4828.26 3914.09,-8742.35 8742.35,-8742.35z"/>
   <path class="fil1" d="M10077.8 17626.68l0 -6752.74 1903.72 0 252.34 -2376.65 -2156.06 0 3.2 -1189.62c0,-619.88 58.88,-951.88 949.26,-951.88l1190.25 0.01 0 -2377.05 -1904.15 0c-2287.22,0 -3092.14,1152.87 -3092.14,3091.93l0 1426.8 -1425.79 0 0 2376.86 1425.79 0 0 6656.6c555.45,110.67 1129.69,169.13 1717.65,169.13 0.36,-0.02 0.36,-0.02 0.36,-0.02 379.14,0 759.35,-24.77 1135.26,-73.24l0.31 -0.13z"/>
  </g>
 </g>
</svg>
