<svg xmlns="http://www.w3.org/2000/svg" xmlns:xlink="http://www.w3.org/1999/xlink" viewBox="0 0 742.17 742.17"><defs><style>.cls-1{fill:#fff;}.cls-2{fill-rule:evenodd;fill:url(#linear-gradient);}</style><linearGradient id="linear-gradient" x1="-59475.01" y1="79874.29" x2="-59475.01" y2="76286.83" gradientTransform="matrix(0.2, 0, 0, -0.2, 18995.64, 22697.17)" gradientUnits="userSpaceOnUse"><stop offset="0" stop-color="#00b2ff"/><stop offset="1" stop-color="#006aff"/></linearGradient></defs><g id="Layer_1" data-name="Layer 1"><circle class="cls-1" cx="371.09" cy="371.09" r="371.09"/></g><g id="Layer_2" data-name="Layer 2"><path class="cls-2" d="M7199.5,6861.24c186.82,0,338.26,151.44,338.26,338.26s-151.44,338.26-338.26,338.26-338.26-151.44-338.26-338.26S7012.68,6861.24,7199.5,6861.24Z" transform="translate(-6828.41 -6828.41)"/></g><g id="Layer_3" data-name="Layer 3"><path class="cls-1" d="M7240.58,7462.11V7200.84h73.66l9.76-92h-83.42l.12-46c0-24,2.28-36.83,36.73-36.83h46v-92h-73.67c-88.5,0-119.64,44.6-119.64,119.63v55.21H7075v92h55.17v257.56a341.17,341.17,0,0,0,110.41,3.7Z" transform="translate(-6828.41 -6828.41)"/></g></svg>