<?xml version="1.0" encoding="UTF-8"?>
<!DOCTYPE svg PUBLIC "-//W3C//DTD SVG 1.1//EN" "http://www.w3.org/Graphics/SVG/1.1/DTD/svg11.dtd">
<!-- Creator: CorelDRAW -->
<svg xmlns="http://www.w3.org/2000/svg" xml:space="preserve" width="178.996mm" height="178.996mm" version="1.1" style="shape-rendering:geometricPrecision; text-rendering:geometricPrecision; image-rendering:optimizeQuality; fill-rule:evenodd; clip-rule:evenodd"
viewBox="0 0 17899.6 17899.6"
 xmlns:xlink="http://www.w3.org/1999/xlink"
 xmlns:xodm="http://www.corel.com/coreldraw/odm/2003">
 <defs>
  <style type="text/css">
   <![CDATA[
    .fil0 {fill:#FEFEFE}
    .fil1 {fill:#1A73E8;fill-rule:nonzero}
    .fil5 {fill:#34A853;fill-rule:nonzero}
    .fil3 {fill:#4285F4;fill-rule:nonzero}
    .fil2 {fill:#EA4335;fill-rule:nonzero}
    .fil4 {fill:#FBBC04;fill-rule:nonzero}
   ]]>
  </style>
 </defs>
 <g id="Capa_x0020_1">
  <metadata id="CorelCorpID_0Corel-Layer"/>
  <g id="_2984387491296">
   <ellipse class="fil0" cx="8942.61" cy="6367.87" rx="2700.29" ry="2502.42"/>
   <path class="fil1" d="M10783.61 510.53c-578.88,-182.62 -1199.11,-282.55 -1840.02,-282.55 -1871.03,0 -3545.65,844.2 -4665.51,2174.26l2877.18 2418.9 3628.35 -4310.61z"/>
   <path class="fil2" d="M4278.08 2402.23c-921.16,1093.38 -1426.53,2479.08 -1426.53,3909.24 0,1.48 0,3.7 0,5.18 0,1143.99 227.41,2074.33 603,2904.75l3700.71 -4400.19 -2877.18 -2418.98z"/>
   <g>
    <path class="fil3" d="M8943.59 3990.71c1286.27,1.14 2328.56,1044.56 2328.56,2330.69 0,550.59 -195.49,1084.11 -550.59,1504.38l3624.9 -4310.6c-743.92,-1432.44 -2027.18,-2513.35 -3566.35,-3001.36l-3621.46 4310.6c441.32,-528.06 1094.29,-833.71 1782.71,-833.71 0.57,0 1.7,0 2.27,0l-0.04 0zm0 0l0 0 0 0z"/>
   </g>
   <g>
    <path class="fil4" d="M8943.59 8649.34c-1285.25,0 -2329.31,-1044.06 -2329.31,-2329.31 0,-1.85 0,-4.39 0,-6.36 0,-544.82 193.35,-1072.72 544.53,-1489.02l-3704.16 4400.2c634.02,1402.41 1684.96,2529.16 2766.92,3948.8l4500.12 -5347.77c-442.15,522.09 -1091.74,823.46 -1775.99,823.46 -0.56,0 -1.41,0 -1.98,0l-0.13 0zm0 0l0 0 0 0z"/>
   </g>
   <g>
    <path class="fil5" d="M10632 14631.12c2032.98,-3176.96 4400.19,-4620.72 4400.19,-8314.54 0,-1013.04 -248.09,-1967.51 -685.7,-2808.27l-8121.58 9665.27c344.57,451.39 692.59,930.34 1030.27,1460.99 1233.57,1908.93 892.45,3052.91 1688.41,3052.91 795.96,0 454.84,-1147.43 1688.41,-3056.36l0 0zm0 0l0 0 0 0z"/>
   </g>
  </g>
 </g>
</svg>
