<?xml version="1.0" encoding="UTF-8"?>
<!DOCTYPE svg PUBLIC "-//W3C//DTD SVG 1.1//EN" "http://www.w3.org/Graphics/SVG/1.1/DTD/svg11.dtd">
<!-- Creator: CorelDRAW -->
<svg xmlns="http://www.w3.org/2000/svg" xml:space="preserve" width="178.996mm" height="178.996mm" version="1.1" style="shape-rendering:geometricPrecision; text-rendering:geometricPrecision; image-rendering:optimizeQuality; fill-rule:evenodd; clip-rule:evenodd"
viewBox="0 0 17899.6 17899.6"
 xmlns:xlink="http://www.w3.org/1999/xlink"
 xmlns:xodm="http://www.corel.com/coreldraw/odm/2003">
 <defs>
  <style type="text/css">
   <![CDATA[
    .fil0 {fill:#00E676;fill-rule:nonzero}
    .fil1 {fill:white;fill-rule:nonzero}
   ]]>
  </style>
 </defs>
 <g id="Capa_x0020_1">
  <metadata id="CorelCorpID_0Corel-Layer"/>
  <g id="_2984809547472">
   <g id="Layer_1" data-name="Layer 1">
    <path class="fil0" d="M4202.28 16316.31l326.9 163.45c1317.04,782.34 2824,1197.59 4356.97,1197.59 14.58,0 32.26,0 46.84,0 4770.2,-10.82 8689.71,-3939.38 8689.71,-8709.58 -7.48,-4807.71 -3898.46,-8709.35 -8706.4,-8729.65 -4748.32,0 -8655.26,3907.43 -8655.26,8655.25 0,37.73 0,75.45 0,112.15 13.69,1613.71 467.2,3195.6 1306.67,4572.52l217.76 326.9 -871.29 3211.52 3288.1 -800.15 0 0z"/>
   </g>
   <g id="Layer_3" data-name="Layer 3">
    <path class="fil1" d="M13817.61 11145.78l-598.72 -272.32c0,0 -871.06,-380.96 -1415.47,-653.8 -54.32,0 -108.63,-54.56 -163.2,-54.56 -134.14,3.11 -265.37,40.73 -380.92,108.85 -115.92,68.15 -54.56,54.57 -816.49,925.38 -51.28,100.33 -154.53,163.52 -267.19,163.52 -1.73,0 -3.52,-0.04 -5.21,-0.04l-54.3 -0.01c-81.74,-13.79 -157.7,-51.79 -217.76,-108.91l-272.33 -108.87c-583.28,-246.84 -1119,-597.75 -1578.46,-1033.96 -108.63,-108.88 -272.08,-217.77 -380.96,-326.9 -401.93,-385.83 -751.84,-827.32 -1034.78,-1307.54l-54.31 -108.87c-47.08,-66.67 -83.93,-140.49 -108.59,-218.14 -3.04,-20.11 -4.58,-40.56 -4.58,-60.96 0,-74.4 20.4,-147.5 58.91,-211.1 50.29,-81.73 217.76,-272.08 380.96,-435.53 163.19,-163.45 163.45,-272.08 272.32,-380.96 82.18,-114.11 126.41,-251.36 126.41,-392.04 0,-51.21 -5.97,-102.59 -17.53,-152.41 -252.52,-701.09 -548.13,-1396.02 -872.26,-2067.61 -86.2,-136.94 -222.67,-234.45 -379.74,-272.94l-598.73 0.01c-108.88,0 -217.77,54.32 -326.9,54.32l-54.56 54.31c-108.88,54.56 -217.77,163.45 -326.9,217.77 -109.14,54.31 -163.2,217.76 -272.08,326.9 -380.61,481.03 -591.03,1076.02 -597.82,1689.3 5.82,430.85 98.73,857.6 271.97,1252.09l54.56 163.19c488.27,1044.86 1172.9,1988.7 2013.7,2776.33l217.77 217.77c158.1,130.99 304.72,277.62 435.65,435.54 1127.29,980.18 2469.28,1689.73 3914.47,2068.24 163.2,54.32 380.96,54.32 544.41,108.88l543.74 0.24c284.17,-13.79 563.14,-88.51 816.55,-217.79 133.32,-60.27 261.46,-133.85 381.21,-217.83l108.87 -108.88c108.88,-108.88 217.77,-163.19 326.9,-272.08 106.28,-94.64 198.24,-205.02 272.1,-326.78 104.26,-243.33 178.11,-500.28 217.7,-762.19l0 -380.96c-48.83,-43.92 -104.12,-80.8 -163.47,-108.89l5.06 0.23z"/>
   </g>
  </g>
 </g>
</svg>
