<svg xmlns="http://www.w3.org/2000/svg" viewBox="0 0 752.01 757.74"><defs><style>.cls-1{fill:#fff;}.cls-2{fill:#00e676;}</style></defs><g id="Layer_2" data-name="Layer 2"><path class="cls-1" d="M7466.63,6931.74a368.76,368.76,0,0,0-265-110.59H7201c-205.14,0-374,168.81-374,374,0,1,0,1.91,0,2.87a395.7,395.7,0,0,0,49.16,186.36L6823,7578.89l198.44-51.2a365.25,365.25,0,0,0,179,45.05c205.91-1.12,374.7-170.9,374.57-376.82a371.89,371.89,0,0,0-108.33-264.18m-265,577.52a304.16,304.16,0,0,1-157.48-43l-12.29-6.15-118.17,30.72,30.72-116.73-8.19-12.29a310.62,310.62,0,0,1-46.55-163.57c0-170.43,140.24-310.67,310.67-310.67S7511,7027.8,7511,7198.23a311,311,0,0,1-146.78,263.92,298.3,298.3,0,0,1-161.58,47.11m180-227.33-22.53-10.24s-32.76-14.33-53.24-24.57c-2.05,0-4.1-2.05-6.15-2.05a29.65,29.65,0,0,0-14.33,4.1c-4.36,2.56-2.05,2-30.72,34.81a11.28,11.28,0,0,1-10.24,6.15h-2.05a15.67,15.67,0,0,1-8.19-4.1l-10.24-4.1a198.75,198.75,0,0,1-59.39-38.91c-4.1-4.09-10.24-8.19-14.34-12.29a229.12,229.12,0,0,1-38.91-49.15l-2.05-4.09a29.92,29.92,0,0,1-4.09-8.19,15.31,15.31,0,0,1,2.05-10.24c1.86-3.08,8.19-10.24,14.33-16.39s6.15-10.24,10.24-14.33a25.26,25.26,0,0,0,4.1-20.48,799.3,799.3,0,0,0-32.77-77.82,23.78,23.78,0,0,0-14.33-10.24h-22.53c-4.1,0-8.19,2-12.29,2l-2.05,2.05c-4.09,2-8.19,6.15-12.29,8.19s-6.14,8.2-10.23,12.29a104.41,104.41,0,0,0-22.53,63.49,121.15,121.15,0,0,0,10.24,47.1l2.05,6.14A341.14,341.14,0,0,0,7096,7265.55l8.19,8.19a123.14,123.14,0,0,1,16.38,16.39A365.85,365.85,0,0,0,7267.77,7368c6.15,2.05,14.34,2.05,20.48,4.09h20.48a75.73,75.73,0,0,0,30.72-8.19,88.92,88.92,0,0,0,14.34-8.19l4.09-4.1c4.1-4.09,8.19-6.14,12.29-10.24a54.15,54.15,0,0,0,10.24-12.28,117.35,117.35,0,0,0,8.19-28.67V7286a26.13,26.13,0,0,0-6.14-4.1" transform="translate(-6822.96 -6821.14)"/></g><g id="Layer_1" data-name="Layer 1"><path class="cls-2" d="M7010.76,7492.23l13,6.5a339,339,0,0,0,175.13,47.62c189.7-.43,345.57-156.66,345.57-346.36a347.72,347.72,0,0,0-346.24-347.15c-188.83,0-344.2,155.39-344.2,344.2,0,1.5,0,3,0,4.46A355.12,355.12,0,0,0,6906,7383.34l8.66,13L6880,7524.05l130.76-31.82Z" transform="translate(-6822.96 -6821.14)"/></g><g id="Layer_3" data-name="Layer 3"><path class="cls-1" d="M7393.14,7286.61l-23.81-10.83s-34.64-15.15-56.29-26c-2.16,0-4.32-2.17-6.49-2.17a31.34,31.34,0,0,0-15.15,4.33c-4.61,2.71-2.17,2.17-32.47,36.8a11.93,11.93,0,0,1-10.83,6.5h-2.16a16.57,16.57,0,0,1-8.66-4.33l-10.83-4.33a210.5,210.5,0,0,1-62.78-41.13c-4.32-4.33-10.82-8.66-15.15-13a242.52,242.52,0,0,1-41.13-52l-2.16-4.33a31.11,31.11,0,0,1-4.33-8.66,16.21,16.21,0,0,1,2.16-10.82c2-3.25,8.66-10.82,15.15-17.32s6.5-10.82,10.83-15.15a26.69,26.69,0,0,0,4.33-21.65,844.65,844.65,0,0,0-34.64-82.26,25.13,25.13,0,0,0-15.15-10.82h-23.81c-4.33,0-8.66,2.16-13,2.16l-2.17,2.16c-4.33,2.17-8.66,6.5-13,8.66s-6.49,8.66-10.82,13A110.37,110.37,0,0,0,6997,7102.6a128.24,128.24,0,0,0,10.82,49.79l2.17,6.49a360.85,360.85,0,0,0,80.09,110.41l8.66,8.66a131.22,131.22,0,0,1,17.32,17.32,386.5,386.5,0,0,0,155.65,82.26c6.49,2.16,15.15,2.16,21.65,4.33H7315a80.06,80.06,0,0,0,32.47-8.66,94,94,0,0,0,15.16-8.66l4.33-4.33c4.33-4.33,8.66-6.49,13-10.82a57.16,57.16,0,0,0,10.82-13,124,124,0,0,0,8.66-30.31v-15.15a27,27,0,0,0-6.5-4.33Z" transform="translate(-6822.96 -6821.14)"/></g></svg>