<?xml version="1.0" encoding="UTF-8"?>
<!DOCTYPE svg PUBLIC "-//W3C//DTD SVG 1.1//EN" "http://www.w3.org/Graphics/SVG/1.1/DTD/svg11.dtd">
<!-- Creator: CorelDRAW -->
<svg xmlns="http://www.w3.org/2000/svg" xml:space="preserve" width="236.602mm" height="118.608mm" version="1.1" style="shape-rendering:geometricPrecision; text-rendering:geometricPrecision; image-rendering:optimizeQuality; fill-rule:evenodd; clip-rule:evenodd"
viewBox="0 0 23660.2 11860.8"
 xmlns:xlink="http://www.w3.org/1999/xlink"
 xmlns:xodm="http://www.corel.com/coreldraw/odm/2003">
 <defs>
  <style type="text/css">
   <![CDATA[
    .fil1 {fill:#2F2E41;fill-rule:nonzero}
    .fil5 {fill:#3F3D56;fill-rule:nonzero}
    .fil4 {fill:#6C63FF;fill-rule:nonzero}
    .fil3 {fill:#E6E6E6;fill-rule:nonzero}
    .fil0 {fill:#F0F0F0;fill-rule:nonzero}
    .fil2 {fill:#FFB6B6;fill-rule:nonzero}
    .fil6 {fill:white;fill-rule:nonzero}
   ]]>
  </style>
 </defs>
 <g id="Capa_x0020_1">
  <metadata id="CorelCorpID_0Corel-Layer"/>
  <g id="_2550238232896">
   <path class="fil0" d="M15862.22 11865.53c713.93,0 1426.79,-12.78 2138.59,-38.34 1017.07,-36.54 2068.78,-74.28 3046.3,-616.45 683.82,-379.23 1289.44,-987.67 1751.39,-1759.58 307.72,-522.59 535.41,-1091.45 671.29,-1682.71 121.61,-520.04 184.11,-1052.14 184.11,-1585.94 0,-569.26 -70.95,-1137.68 -209.46,-1689.21 -94.04,-368.19 -226.12,-726.79 -390.15,-1069.06 -712.87,-1476.2 -2013.08,-2467.14 -3567.27,-2718.7 -7.5,-0.87 -15.26,-1.38 -23,-1.38 -5.17,0 -10.38,0.24 -15.52,0.68 -6.99,0.37 -13.96,0.78 -21.06,0.48l-9.14 -2.91c-23.41,-8.14 -47.57,-14.35 -72,-18.5 -2396.97,-356.84 -4930.91,365.17 -7327.7,2087.92 -1853.2,1332.21 -4309.2,2049.58 -7508.38,2193.11l-45.42 2.38c-890.58,51.16 -1752.03,418.32 -2491.33,1061.85 -729.71,635.16 -1277.6,1482.57 -1584.43,2450.68 -37.72,118.03 -72.3,240.89 -102.77,365.15 -13.05,53.67 -19.86,109.02 -19.86,164.36 0,183.53 73.34,359.65 203.54,488.93l0 0.23 7.97 8.19c19.17,19.07 39.36,37.36 59.99,54.39l24.26 20c204.45,168.41 365.92,301.45 559.19,404.78 128.57,68.14 266.06,120.2 407.96,153.99 779.6,190.07 1571.3,366.28 2353.1,523.79 1518.31,306.13 3076.61,558.67 4631.64,750.57 2436.33,290.03 4891.78,451.28 7347.23,451.28 0,0 0,0 0,0l0.93 0.02zm3604.47 -11108.4c0.26,-0.02 0.57,-0.02 0.85,-0.02 4.47,0 8.98,0.33 13.4,0.97 1539.66,249.21 2827.56,1230.42 3533.36,2692.01 162.26,338.8 293.01,694.5 386.51,1058.64 136.79,546.02 207.12,1109.47 207.12,1673.75 0,529.13 -61.95,1056.58 -182.51,1571.47 -134.61,585.72 -360.11,1149.83 -665.07,1667.41 -457.42,764.35 -1056.86,1366.69 -1733.5,1741.91 -968.75,537.31 -2015.49,574.9 -3027.78,611.23 -706.01,23.34 -1430.74,37.98 -2140.83,37.98 -2452.39,0 -4912.1,-153.73 -7342.53,-453.87 -1554.02,-191.8 -3111.31,-444.16 -4628.62,-750.11 -781.27,-157.38 -1572.42,-333.47 -2351.49,-523.43 -135.1,-29.62 -269.36,-80.78 -394.81,-147.3 -189.37,-101.23 -349.31,-233.01 -551.79,-399.82l-24.26 -19.97c-17.74,-14.65 -35.15,-30.31 -51.81,-46.59l-4.78 -5.01c-166.4,-167.72 -231.11,-388.99 -177.53,-607.07l0 -0.03c30.15,-122.94 64.36,-244.48 101.7,-361.3 626.8,-1977.66 2248.26,-3375.27 4034.8,-3477.88l45.17 -2.38c1461.34,-65.58 2740.13,-247.22 3909.26,-555.37 1395.67,-367.83 2614.12,-921.55 3621.5,-1645.73 2387.66,-1716.15 4911,-2435.47 7297.5,-2080.33 22.11,3.91 44.21,9.65 65.5,17.1l16.48 4.61c3.65,0.18 7.38,0.27 11.07,0.27 5.66,0 11.39,-0.21 17.02,-0.58 5.51,-0.28 10.85,-0.56 16.07,-0.56z"/>
   <path class="fil1" d="M16263.52 3869.12c66.09,-63.41 133.7,-417.02 218.07,-452.92 -63.07,139.4 -17.28,176.3 -16.94,329.29 -0.06,3.01 -0.06,6.42 -0.06,9.45 0,83.66 10.24,167.19 30.2,248.33l1429.45 0.05 0 -1115.53c-0.02,-0.03 -0.02,-0.03 -0.02,-0.03 0,-421.45 -341.79,-763.24 -763.24,-763.24 0,0 0,0 0,0 -38.23,0.74 -76.31,6.3 -113.12,16.54 -250.06,67.44 -445.24,263.24 -512.05,513.44 -108.92,398.28 -282.22,1061.27 -272.29,1214.62z"/>
   <path class="fil2" d="M17840.36 5241.44l-0.7 -869.49 511.11 45.67 -180.38 548.39 84.42 1378.38c98.65,22.11 168.87,109.81 168.87,210.97 0,119.41 -96.83,216.24 -216.24,216.24 -119.41,0 -216.24,-96.83 -216.24,-216.24 0,-9.58 0.66,-19.25 1.93,-28.72l-152.77 -1285.2z"/>
   <polygon class="fil2" points="16834.51,11454.84 16628.03,11454.81 16529.79,10658.36 16834.56,10658.36 "/>
   <path class="fil1" d="M16904.45 11352.97l-326.42 -19.48 0 139.85 -310.34 214.33c-23.63,16.27 -37.74,43.16 -37.74,71.86 0,48.24 39.12,87.36 87.36,87.36 0,0 0,0 0,0l388.64 0.02 66.98 -138.33 26.15 138.33 146.52 0 -41.15 -493.94z"/>
   <polygon class="fil2" points="18028.47,11454.84 17821.96,11454.81 17723.75,10658.36 18028.5,10658.36 "/>
   <path class="fil1" d="M18098.39 11352.97l-326.42 -19.48 0 139.85 -310.33 214.33c-23.64,16.27 -37.75,43.16 -37.75,71.86 0,48.24 39.12,87.36 87.36,87.36 0,0 0,0 0,0l388.64 0.02 66.98 -138.33 26.15 138.33 146.53 0 -41.16 -493.94z"/>
   <path class="fil3" d="M17018.39 3432.97l427.76 8.39 301.95 318.72 242.08 35.5c225.56,33.11 397.49,219.56 412.13,447.07l0 0 -41.94 230.36 -251.61 0.01 -145.56 854.68c56.6,144.23 60.45,258.07 -55.73,302.79l-360.66 679.38 -1065.21 -478.08c-54.02,-92.87 -71.33,-186.15 -16.11,-276.87l-76.15 -1308.36 -256.06 0 0 0c0,-244.7 82.77,-451 325.96,-478.23 96.26,-10.04 193.83,-16.36 290.7,-16.71l268.45 -318.65z"/>
   <path class="fil1" d="M16481.6 5831.79c0,0 1040.05,184.52 1425.87,-201.3 0,0 39.17,66.5 98.19,176.78 16.97,31.72 49.76,53.2 69.56,91.62 17.99,34.91 64.27,77.84 83.87,117.44 15.77,31.86 -9.53,73.49 6.88,107.9 197.59,414.43 428.43,999.03 378.94,1385.05 -31.92,248.94 -97.83,828.19 -167.26,1450.34 -5.42,48.61 38.51,111.05 33.06,160.05 -5.14,46.2 -59.67,78.94 -64.81,125.25 -3.41,30.75 34.66,62.11 31.26,92.82 -3.74,33.69 -48.95,66.72 -52.67,100.29 -95.1,859.05 -182.18,1661.08 -182.18,1661.08l-486.47 0 -91.79 -1831.76 75.01 -667.71 -176.14 -1350.38 -243.24 1283.28 -31.29 722.24 -257.05 1877.87 -449.74 0.01 0 -1817.9 -33.55 -94.44 33.55 -121.12 -33.55 -130.5 33.55 -142.12 0 -2994.79z"/>
   <path class="fil2" d="M16887.1 3184.91c91.54,121.62 235.04,193.25 387.35,193.25 267.75,0 484.88,-217.13 484.88,-484.88 0,-267.75 -217.13,-484.88 -484.88,-484.88 -224,0 -418.93,153.56 -471.38,371.28 -1.39,5.81 -2.57,11.59 -3.71,17.59 -6.37,31.69 -9.68,64.02 -9.68,96.36 0,105.05 34.29,207.38 97.42,291.26l0 0.02z"/>
   <path class="fil1" d="M16988.2 2908.25c10.25,-51.61 36.33,-98.81 74.48,-135.03 -0.65,8.72 -1.03,17.59 -1.03,26.38 0,40.71 7.17,81.17 21.14,119.37 19.65,1.73 39.5,2.63 59.27,2.63 107.87,0 214.26,-26.09 309.91,-75.8 85.55,-58.04 194.42,-53.01 321.24,0 0.03,0.04 0.03,-0.02 0.03,-0.02 0,-259.33 -210.31,-469.64 -469.64,-469.64 0,0 -0.06,0 -0.06,0l-83.85 0.01c-259.35,0 -469.72,210.37 -469.72,469.72 77.22,27.61 157.29,48.78 238.21,62.44l0.02 -0.06z"/>
   <circle class="fil0" cx="20657.66" cy="7545.36" r="1349.37"/>
   <circle class="fil0" cx="12058.7" cy="1354.11" r="1349.37"/>
   <circle class="fil0" cx="1343.07" cy="7757.02" r="1349.37"/>
   <path class="fil4" d="M9624.53 1501.26l0 3059.8c0.01,-0.01 0.01,0.02 0.01,0.02 0,132.25 106.51,239.91 238.76,241.26 0.71,0.06 1.44,0.1 2.18,0.1 0.14,0 0.3,0 0.44,-0.01l356.13 0.02c593.26,-0.01 1074.38,-481.13 1074.38,-1074.39l0 -2226.81c0,-133.29 -108.1,-241.39 -241.39,-241.39l-144.3 0c66.85,195.01 -840.46,277.12 -890.27,0l-154.54 0c-133.3,0 -241.4,108.1 -241.4,241.39l0 0.01z"/>
   <path class="fil5" d="M10681.36 1031.07c-0.03,-17.47 -14.18,-31.62 -31.64,-31.64l-215.12 0c-17.43,0.04 -31.54,14.19 -31.54,31.63 0,17.44 14.11,31.59 31.55,31.64l215.11 0c17.46,-0.03 31.61,-14.18 31.63,-31.64l0.01 0.01z"/>
   <path class="fil5" d="M9792.02 5190.56l1360.38 0c219.72,-0.2 397.91,-178.39 398.1,-398.12l0 -2138.89c15.13,-10.87 24.11,-28.38 24.11,-47 0,-0.02 0,-0.05 0,-0.07l0 -215.12c0,-0.03 0,-0.06 0,-0.08 0,-18.62 -8.99,-36.12 -24.11,-46.98l0 -57.74c15.12,-10.85 24.11,-28.35 24.11,-46.97 0,-0.02 0,-0.05 0,-0.07l0 -215.13c0,-0.02 0,-0.05 0,-0.07 0,-18.62 -8.99,-36.12 -24.11,-46.98l0 -104.35c18.74,-10.07 30.44,-29.63 30.44,-50.9 0,-0.05 0,-0.11 0,-0.16l0 -215.12c0,-0.04 0,-0.1 0,-0.15 0,-21.27 -11.7,-40.84 -30.44,-50.9l0 -285.93c-0.19,-219.71 -178.38,-397.9 -398.11,-398.09l-1360.37 0.01c-219.72,0.17 -397.9,178.35 -398.09,398.08l0 623.26c-14.57,9.1 -23.43,25.09 -23.44,42.27l0 410.18c0.01,17.2 8.86,33.19 23.43,42.3l0.01 2404.63c0.19,219.72 178.37,397.9 398.1,398.09l-0.01 0zm1360.38 -4265.9c190.52,0.16 345.01,154.65 345.18,345.18l0 330.94 25.45 0.98c2.75,0.08 4.94,2.31 4.99,5.06l0 215.12c-0.06,2.74 -2.25,4.97 -4.99,5.08l-25.45 0.97 0 186.51 20.13 4.96c2.29,0.55 3.92,2.57 3.98,4.93l0 215.13c-0.06,2.36 -1.69,4.38 -3.98,4.94l-20.13 4.96 0 132.05 20.13 4.96c2.29,0.55 3.92,2.57 3.98,4.93l0 215.12c-0.05,2.35 -1.68,4.38 -3.98,4.93l-20.13 4.96 0 2176.1c-0.17,190.5 -154.66,344.99 -345.19,345.16l-1360.37 0.02c-190.52,-0.18 -345.01,-154.67 -345.18,-345.2l0 -2449.9 -23.43 0 0 -404.15 23.43 0 0 -668.57c0.17,-190.52 154.66,-345.01 345.19,-345.18l1360.37 0.01z"/>
   <circle class="fil5" cx="10314.39" cy="1031.07" r="31.63"/>
   <path class="fil6" d="M17196.09 7159.14l3539.78 0c104.6,-0.28 189.4,-85.07 189.68,-189.7l0 -1724.79c-0.26,-104.61 -85.05,-189.41 -189.68,-189.69l-3539.76 0c-104.64,0.26 -189.44,85.05 -189.72,189.68l0 1724.79c0.26,104.61 85.05,189.41 189.68,189.69l0.02 0.02z"/>
   <path class="fil5" d="M17196.09 7159.14l3539.78 0c104.6,-0.28 189.4,-85.07 189.68,-189.7l0 -1724.79c-0.26,-104.61 -85.05,-189.41 -189.68,-189.69l-3539.76 0c-104.64,0.26 -189.44,85.05 -189.72,189.68l0 1724.79c0.26,104.61 85.05,189.41 189.68,189.69l0.02 0.02zm3539.78 -2051.26c75.44,0.21 136.57,61.34 136.77,136.8l0 1724.74c-0.23,75.45 -61.37,136.58 -136.82,136.78l-3539.68 0.02c-75.49,-0.22 -136.64,-61.37 -136.84,-136.84l0 -1724.74c0.23,-75.44 61.36,-136.57 136.81,-136.77l3539.76 0.01z"/>
   <path class="fil4" d="M18776.26 6904.24c698.12,0 1426.07,-6.67 1697.68,-11 74.28,-1.53 133.84,-62.08 134.12,-136.4l0.02 -1427.73c-0.04,-26.66 -21.62,-48.28 -48.26,-48.37l-3187.57 0.02c-26.66,0.02 -48.27,21.58 -48.36,48.21l0 968.69c1.17,328.85 265.38,596.46 594.16,602 253.17,3.3 552.91,4.58 858.21,4.58z"/>
   <path class="fil5" d="M17561.47 6208.68l2880.23 0c49.4,-0.14 93.43,-31.19 110.16,-77.68l326 -914.57c4.48,-12.59 6.78,-25.89 6.78,-39.26 0,-64.53 -52.26,-116.91 -116.79,-117.02l-3600.25 -5.01c-0.02,-0.01 -0.09,-0.01 -0.12,-0.01 -64.62,0 -117.03,52.41 -117.03,117.03 0,6.86 0.61,13.76 1.81,20.5l-2.78 1.18 10.34 24.12 0.1 0.25 394.1 919.57c18.34,42.95 60.59,70.88 107.32,70.88 0.03,0 0.07,0 0.1,0l0.03 0.02zm-394.01 -1100.62l3600.31 5.01c35.33,0.05 63.96,28.73 63.96,64.09 0,7.32 -1.26,14.61 -3.72,21.51l-325.99 914.53c-9.16,25.46 -33.3,42.47 -60.37,42.55l-2880.18 0.01c-0.04,-0.01 -0.05,-0.01 -0.07,-0.01 -25.58,0 -48.71,-15.28 -58.74,-38.81l-394.11 -919.6 -19.38 8.31 19.38 -8.31c-3.41,-7.96 -5.18,-16.56 -5.18,-25.23 0,-35.37 28.69,-64.06 64.06,-64.06 0,0 0.01,0 0.01,0l0.02 0.01z"/>
   <circle class="fil6" cx="18971.36" cy="6182.23" r="225.53"/>
   <circle class="fil6" cx="10451.78" cy="4224.31" r="225.53"/>
   <path class="fil5" d="M1921.72 7495.61l602.46 -594.78c58.86,-58.63 138.67,-91.57 221.78,-91.57 0.38,0 0.88,0 1.27,0l2.11 0.02c84.17,0.22 164.83,34.2 223.83,94.2 136.86,138.51 213.8,325.67 213.8,520.52 0,188.34 -71.88,369.8 -200.82,507.05 -6.35,6.88 -12.96,13.49 -19.58,20.11 -36.58,36.38 -77.16,68.94 -120.64,96.67 -118.41,76.39 -256.44,117.16 -397.42,117.16 -0.72,0 -1.7,0 -2.41,0l-4.48 0.02c-196.58,-0.65 -384.8,-80.02 -522.59,-220.15 -58.58,-59.5 -91.51,-139.77 -91.51,-223.31 0,-84.86 33.94,-166.22 94.18,-225.95l0.02 0.01zm34.92 411.96c129.56,130.48 306.04,203.97 489.94,203.97 133.75,0 264.81,-38.94 376.82,-111.92 37.97,-25.06 73.71,-54.05 106.15,-85.98 130.84,-129.16 204.5,-305.54 204.5,-489.48 0,-180.91 -71.39,-354.69 -198.47,-483.36 -49.17,-50.15 -116.51,-78.52 -186.76,-78.62l-1.6 0.02c-0.28,-0.02 -0.63,-0.02 -0.92,-0.02 -69.25,0 -135.71,27.4 -184.82,76.19l-602.46 595.05c-50.26,49.72 -78.58,117.53 -78.58,188.26 0,69.53 27.44,136.38 76.22,185.87l-0.02 0.02z"/>
   <path class="fil5" d="M3898.42 5543.52l602.46 -595.05c59.1,-58.66 139,-91.56 222.25,-91.56 0.23,0 0.58,0 0.81,0l1.83 0.01c84.29,0.3 165.02,34.37 224.1,94.46 136.81,138.92 213.54,326.2 213.54,521.19 0,122.8 -30.47,243.78 -88.61,351.89l-0.26 0.26c-31,57.1 -69.64,110.07 -114.6,156.89 -5.03,5.82 -10.85,11.64 -16.67,17.46 -137.89,136.86 -324.55,213.83 -518.85,213.83 -0.45,0 -1.17,0 -1.62,0l-4.74 0.01c-196.57,-0.82 -384.79,-80.27 -522.54,-220.44 -58.65,-59.33 -91.56,-139.52 -91.56,-223.01 0,-84.92 34.03,-166.31 94.45,-225.96l0.01 0.02zm34.93 411.95c127.89,130.01 302.61,203.76 485.01,204.51l4.47 0.02c379.77,-0.1 687.66,-308.15 687.66,-687.94 0,-180.91 -71.39,-354.67 -198.46,-483.34 -49.66,-50.3 -117.54,-78.62 -188.24,-78.62 -69.53,0 -136.35,27.41 -185.87,76.19l-602.46 594.78c-50.2,49.74 -78.45,117.58 -78.45,188.26 0,69.65 27.48,136.54 76.35,186.11l-0.01 0.03z"/>
   <path class="fil4" d="M1883.21 7682.61l664.19 -656c43.19,-42.55 101.43,-66.46 162.07,-66.46 61.62,0 120.76,24.69 164.09,68.47 107.78,108.89 168.4,256.21 168.4,409.49 0,321.42 -260.66,582.08 -582.08,582.08 -155.84,0 -305.22,-62.61 -414.58,-173.54l-162.09 -164.04z"/>
   <path class="fil4" d="M3859.79 5730.41l664.19 -656c43.19,-42.55 101.43,-66.45 162.07,-66.45 61.62,0 120.76,24.69 164.09,68.47 107.78,108.89 168.4,256.21 168.4,409.49 0,321.42 -260.66,582.07 -582.08,582.07 -155.84,0 -305.22,-62.61 -414.58,-173.53l-162.09 -164.05z"/>
   <path class="fil5" d="M2613.07 8091.19l15.88 41.8c74.61,-28.31 146.93,-56.7 216.96,-85.19 1240.37,-506.15 1832.5,-1098.55 2228.59,-2223.03l0.26 -0.26c18.78,-52.92 37.04,-107.07 54.77,-162.46l-41.8 -13.49c-13.93,53.19 -34.47,104.68 -60.87,152.94 -21.69,61.64 -44,121.69 -66.93,180.17 -372.27,949.06 -921.28,1491.46 -1973.79,1949.45 -52.92,23.02 -107.16,45.86 -162.72,68.52 -64.41,41.96 -135.7,72.97 -210.36,91.51l0.01 0.04z"/>
   <rect class="fil5" transform="matrix(-0.702709 -0.711478 -0.711478 0.702709 4549.11 6202.41)" width="52.93" height="1931.46"/>
   <path class="fil2" d="M16146.1 5040.14l-0.7 -869.49 511.11 45.67 -180.38 548.39 654.77 992.56c98.66,22.14 168.86,109.82 168.86,210.97 0,119.41 -96.83,216.24 -216.24,216.24 -119.41,0 -216.24,-96.83 -216.24,-216.24 0,-9.58 0.66,-19.25 1.93,-28.72l-723.11 -899.38z"/>
  </g>
 </g>
</svg>
